<?xml version="1.0" standalone="no"?>
<!DOCTYPE svg PUBLIC "-//W3C//DTD SVG 20010904//EN"
 "http://www.w3.org/TR/2001/REC-SVG-20010904/DTD/svg10.dtd">
<svg version="1.0" xmlns="http://www.w3.org/2000/svg"
 width="512.000000pt" height="512.000000pt" viewBox="0 0 512.000000 512.000000"
 preserveAspectRatio="xMidYMid meet">

<g transform="translate(0.000000,512.000000) scale(0.100000,-0.100000)"
fill="#000000" stroke="none">
<path d="M0 2560 l0 -2560 2560 0 2560 0 0 2560 0 2560 -2560 0 -2560 0 0
-2560z m3203 246 c86 -31 153 -99 183 -186 12 -34 124 -1428 124 -1541 l0 -29
-950 0 -950 0 0 29 c0 16 25 364 55 772 40 532 60 752 71 778 35 85 99 147
181 177 56 19 1230 19 1286 0z m-1797 -1251 c35 -22 56 -45 76 -84 l28 -53 0
-234 0 -234 1049 0 1050 0 3 243 3 244 30 48 c44 72 117 108 206 103 79 -4
134 -35 176 -100 l28 -42 0 -510 0 -511 -37 -78 c-50 -103 -122 -175 -225
-225 l-78 -37 -1155 0 -1155 0 -78 37 c-103 50 -175 122 -225 225 l-37 78 -3
485 c-2 319 0 497 7 521 16 55 64 113 112 138 64 32 159 26 225 -14z"/>
<path d="M2194 2595 c-14 -21 -15 -31 -6 -50 l12 -25 360 0 360 0 12 25 c9 19
8 29 -6 50 l-16 25 -350 0 -350 0 -16 -25z"/>
<path d="M2085 2200 c-15 -16 -17 -26 -9 -48 l9 -27 475 0 475 0 9 27 c8 22 6
32 -9 48 -18 20 -29 20 -475 20 -446 0 -457 0 -475 -20z"/>
<path d="M2015 1800 c-15 -16 -17 -26 -9 -48 l9 -27 545 0 545 0 9 27 c8 22 6
32 -9 48 -18 20 -28 20 -545 20 -517 0 -527 0 -545 -20z"/>
<path d="M1976 1398 c-21 -29 -20 -41 2 -61 17 -15 72 -17 585 -17 l567 0 16
25 c15 23 15 27 0 50 l-16 25 -570 0 -569 0 -15 -22z"/>
</g>
</svg>
